<svg xmlns="http://www.w3.org/2000/svg" viewBox="0 0 64 64" role="img" aria-label="Chill Zone logo">
  <defs>
    <linearGradient id="czg-favicon" x1="0" y1="0" x2="1" y2="1">
      <stop offset="0%" stop-color="#d61f2c" />
      <stop offset="100%" stop-color="#f7c843" />
    </linearGradient>
  </defs>
  <rect x="4" y="4" width="56" height="56" rx="14" fill="url(#czg-favicon)" />
  <path d="M16 33c2-8 7-13 15-13 4 0 8 1 11 4l-4 5c-2-1-4-2-7-2-5 0-8 3-9 8-1 5 1 9 7 9 3 0 6-1 8-3l3 5c-3 2-7 4-12 4-9 0-15-6-12-17z" fill="#fff8ed" />
</svg>
